<?xml version="1.0" encoding="UTF-8"?><svg id="_レイヤー_2" xmlns="http://www.w3.org/2000/svg" width="333.79" height="79.18" viewBox="0 0 333.79 79.18"><defs><style>.cls-1{fill:#fdd000;}.cls-2{fill:#231815;}.cls-3{fill:#2c4198;}.cls-4{fill:none;stroke:#231815;stroke-miterlimit:10;stroke-width:.84px;}</style></defs><polygon class="cls-2" points="189.49 49.9 190.73 49.9 190.73 53.71 194.43 49.9 196.08 49.9 192.01 53.99 196.4 58.56 194.59 58.56 190.73 54.32 190.73 58.56 189.49 58.56 189.49 49.9"/><path class="cls-2" d="M200.61,52.08c1.92,0,3.21,1.39,3.21,3.31,0,1.81-1.31,3.31-3.21,3.31s-3.22-1.5-3.22-3.31c0-1.92,1.29-3.31,3.22-3.31m0,5.68c1.36,0,1.97-1.24,1.97-2.37,0-1.2-.73-2.37-1.97-2.37s-1.98,1.16-1.98,2.37c0,1.13,.61,2.37,1.98,2.37"/><path class="cls-2" d="M211.67,58.28c0,1.92-.99,3.03-3.26,3.03-.67,0-1.25-.09-2.27-.43l.12-1.08c.89,.41,1.43,.57,2.28,.57,1.23,0,1.96-.83,1.96-2.17v-.62h-.02c-.5,.66-1.32,.98-2.12,.98-1.81,0-2.7-1.48-2.7-3.11s.92-3.36,2.83-3.36c1.12,0,1.74,.41,2.08,1.09h.02v-.94h1.08v6.05Zm-1.17-2.81c0-1.31-.61-2.44-1.85-2.44s-1.76,1.28-1.76,2.36c0,1.19,.67,2.23,1.76,2.23s1.85-.97,1.85-2.15"/><path class="cls-2" d="M214.55,52.68c.58-.35,1.28-.59,2.08-.59,1.81,0,2.54,.89,2.54,2.61v2.62c0,.72,.03,1.05,.05,1.24h-1.09v-.82h-.03c-.27,.38-.89,.97-1.96,.97-1.36,0-2.32-.6-2.32-1.97,0-1.59,1.74-2.08,2.94-2.08,.46,0,.78,0,1.24,.03,0-1.09-.4-1.65-1.56-1.65-.66,0-1.36,.25-1.84,.64l-.06-.99Zm3.46,2.86c-.25,0-.5-.02-.74-.02-.63,0-2.19,.1-2.19,1.21,0,.67,.65,1.03,1.18,1.03,1.15,0,1.76-.72,1.76-1.66v-.56Z"/><polygon class="cls-2" points="221.73 49.26 222.9 49.26 222.9 54.8 225.44 52.23 227.03 52.23 224.09 55.04 227.4 58.56 225.72 58.56 222.9 55.31 222.9 58.56 221.73 58.56 221.73 49.26"/><path class="cls-2" d="M234.67,58.56h-1.13v-1h-.02c-.35,.72-1.19,1.15-2.07,1.15-1.64,0-2.37-1.02-2.37-2.72v-3.76h1.16v3.27c0,1.48,.32,2.19,1.34,2.26,1.33,0,1.92-1.07,1.92-2.6v-2.93h1.17v6.32Z"/><path class="cls-2" d="M238.58,50.82h-1.31v-1.32h1.31v1.32Zm-1.24,1.41h1.16v6.32h-1.16v-6.32Z"/><path class="cls-2" d="M241.17,52.23h1.13v1h.02c.35-.72,1.19-1.15,2.07-1.15,1.64,0,2.37,1.02,2.37,2.72v3.76h-1.17v-3.27c0-1.48-.32-2.19-1.34-2.26-1.33,0-1.92,1.07-1.92,2.6v2.93h-1.17v-6.32Z"/><path class="cls-2" d="M259.96,54.97c0,2.43-1.23,3.73-3.36,3.73s-3.36-1.3-3.36-3.73v-5.07h1.24v4.91c0,1.66,.52,2.8,2.12,2.8s2.12-1.14,2.12-2.8v-4.91h1.24v5.07Z"/><path class="cls-2" d="M262.65,52.23h1.13v1h.02c.35-.72,1.19-1.15,2.07-1.15,1.64,0,2.37,1.02,2.37,2.72v3.76h-1.17v-3.27c0-1.48-.32-2.19-1.34-2.26-1.33,0-1.92,1.07-1.92,2.6v2.93h-1.16v-6.32Z"/><path class="cls-2" d="M272.13,50.82h-1.31v-1.32h1.31v1.32Zm-1.24,1.41h1.16v6.32h-1.16v-6.32Z"/><polygon class="cls-2" points="277.58 58.56 276.19 58.56 273.92 52.23 275.2 52.23 276.91 57.39 276.93 57.39 278.68 52.23 279.85 52.23 277.58 58.56"/><path class="cls-2" d="M286.35,58.3c-.45,.16-.96,.41-2,.41-2.25,0-3.27-1.36-3.27-3.42,0-1.87,1.18-3.2,2.96-3.2,2.11,0,2.79,1.54,2.79,3.57h-4.51c0,1.25,.98,2.11,2.08,2.11,.77,0,1.66-.4,1.95-.63v1.16Zm-.76-3.51c0-.97-.57-1.76-1.57-1.76-1.14,0-1.61,.94-1.7,1.76h3.27Z"/><path class="cls-2" d="M289.05,52.23h1.09v.98h.02c.31-.66,.98-1.13,1.65-1.13,.35,0,.52,.04,.77,.09v1.04c-.21-.09-.45-.11-.64-.11-1.04,0-1.72,.99-1.72,2.58v2.88h-1.17v-6.32Z"/><path class="cls-2" d="M294.22,57.32c.46,.3,1.12,.45,1.45,.45,.53,0,1.19-.22,1.19-.91,0-1.15-2.74-1.05-2.74-2.83,0-1.31,.98-1.95,2.23-1.95,.55,0,.99,.11,1.45,.25l-.1,1.02c-.26-.16-.95-.32-1.23-.32-.6,0-1.12,.25-1.12,.77,0,1.29,2.74,.92,2.74,2.94,0,1.35-1.08,1.97-2.21,1.97-.6,0-1.2-.06-1.74-.35l.06-1.04Z"/><path class="cls-2" d="M301.48,50.82h-1.31v-1.32h1.31v1.32Zm-1.24,1.41h1.16v6.32h-1.16v-6.32Z"/><path class="cls-2" d="M307.51,53.18h-1.68v3.46c0,.73,.45,1.13,.98,1.13,.36,0,.62-.11,.79-.22v.99c-.26,.07-.62,.17-.99,.17-1.2,0-1.95-.57-1.95-1.83v-3.7h-1.43v-.94h1.43v-1.46l1.16-.37v1.83h1.68v.94Z"/><path class="cls-2" d="M309.43,60.27c.15,.05,.35,.1,.55,.1,1.04,0,1.39-1.44,1.39-1.56,0-.14-.15-.46-.22-.67l-2.15-5.9h1.28l1.7,5.23h.03l1.74-5.23h1.18l-2.33,6.46c-.43,1.21-.89,2.62-2.43,2.62-.37,0-.58-.05-.79-.09l.07-.96Z"/><path class="cls-2" d="M323.27,52.08c1.92,0,3.21,1.39,3.21,3.31,0,1.81-1.31,3.31-3.21,3.31s-3.22-1.5-3.22-3.31c0-1.92,1.29-3.31,3.22-3.31m0,5.68c1.36,0,1.97-1.24,1.97-2.37,0-1.2-.73-2.37-1.97-2.37s-1.98,1.16-1.98,2.37c0,1.13,.61,2.37,1.98,2.37"/><path class="cls-2" d="M329.33,53.18h-1.49v-.94h1.49v-.58c0-1.54,.4-2.54,2.12-2.54,.3,0,.55,.04,.78,.07l-.05,.94c-.14-.05-.36-.07-.56-.07-1,0-1.13,.65-1.13,1.5v.68h1.67v.94h-1.67v5.38h-1.17v-5.38Z"/><polygon class="cls-2" points="191.51 65.01 188.83 65.01 188.83 63.92 195.44 63.92 195.44 65.01 192.75 65.01 192.75 72.57 191.51 72.57 191.51 65.01"/><path class="cls-2" d="M200.68,72.31c-.44,.16-.96,.41-2,.41-2.24,0-3.27-1.36-3.27-3.42,0-1.87,1.18-3.2,2.96-3.2,2.11,0,2.79,1.54,2.79,3.57h-4.51c0,1.25,.98,2.11,2.08,2.11,.77,0,1.66-.4,1.95-.63v1.17Zm-.76-3.51c0-.97-.57-1.76-1.57-1.76-1.14,0-1.61,.94-1.7,1.76h3.27Z"/><path class="cls-2" d="M206.43,67.32c-.45-.19-.89-.27-1.26-.27-1.3,0-2.04,1.17-2.04,2.37,0,1.13,.61,2.37,2.11,2.37,.4,0,.89-.12,1.25-.36l.09,1.04c-.48,.22-1.04,.26-1.46,.26-1.91,0-3.22-1.5-3.22-3.31,0-1.92,1.29-3.31,3.22-3.31,.47,0,1.08,.11,1.41,.25l-.1,.97Z"/><path class="cls-2" d="M207.9,63.27h1.17v3.88h.02c.42-.67,1.15-1.05,2.03-1.05,1.64,0,2.37,1.02,2.37,2.71v3.76h-1.17v-3.27c0-1.47-.32-2.19-1.34-2.26-1.33,0-1.92,1.07-1.92,2.6v2.93h-1.17v-9.3Z"/><path class="cls-2" d="M215.49,66.25h1.13v1h.02c.35-.72,1.19-1.15,2.07-1.15,1.64,0,2.37,1.02,2.37,2.72v3.76h-1.17v-3.27c0-1.47-.32-2.19-1.34-2.25-1.33,0-1.92,1.06-1.92,2.6v2.93h-1.16v-6.32Z"/><path class="cls-2" d="M225.89,66.1c1.92,0,3.21,1.39,3.21,3.31,0,1.81-1.31,3.31-3.21,3.31s-3.22-1.5-3.22-3.31c0-1.92,1.29-3.31,3.22-3.31m0,5.68c1.36,0,1.97-1.24,1.97-2.37,0-1.2-.73-2.37-1.97-2.37s-1.98,1.16-1.98,2.37c0,1.13,.61,2.37,1.98,2.37"/><rect class="cls-2" x="230.82" y="63.27" width="1.16" height="9.3"/><path class="cls-2" d="M236.66,66.1c1.92,0,3.21,1.39,3.21,3.31,0,1.81-1.31,3.31-3.21,3.31s-3.22-1.5-3.22-3.31c0-1.92,1.29-3.31,3.22-3.31m0,5.68c1.36,0,1.97-1.24,1.97-2.37,0-1.2-.73-2.37-1.97-2.37s-1.98,1.16-1.98,2.37c0,1.13,.61,2.37,1.98,2.37"/><path class="cls-2" d="M246.64,72.3c0,1.92-.99,3.02-3.26,3.02-.67,0-1.25-.09-2.27-.43l.12-1.08c.89,.41,1.43,.57,2.28,.57,1.23,0,1.96-.83,1.96-2.17v-.62h-.02c-.5,.66-1.32,.98-2.12,.98-1.81,0-2.7-1.48-2.7-3.11s.92-3.36,2.83-3.36c1.12,0,1.74,.41,2.08,1.09h.02v-.94h1.08v6.05Zm-1.17-2.81c0-1.32-.61-2.44-1.85-2.44s-1.76,1.28-1.76,2.36c0,1.19,.67,2.23,1.76,2.23s1.85-.97,1.85-2.14"/><path class="cls-2" d="M248.26,74.28c.15,.05,.35,.1,.55,.1,1.04,0,1.39-1.44,1.39-1.56,0-.14-.15-.46-.22-.67l-2.15-5.9h1.28l1.7,5.23h.03l1.74-5.23h1.18l-2.33,6.46c-.43,1.21-.89,2.62-2.43,2.62-.37,0-.58-.05-.79-.09l.07-.96Z"/><path class="cls-2" d="M263.45,67.9c-.11,1.4-.5,2.2-.99,2.96l1.51,1.71h-1.55l-.71-.84c-.62,.71-1.38,.99-2.48,.99-1.71,0-2.79-.97-2.79-2.42,0-1.31,.77-2.06,1.93-2.53-.46-.56-.89-1.14-.89-1.97,0-1.39,1.02-2.03,2.26-2.03,1.13,0,2.14,.6,2.14,1.96,0,1.1-.98,1.85-1.9,2.26l1.76,2.01c.33-.53,.47-1.1,.53-2.09h1.17Zm-3.99,3.88c.81,0,1.33-.52,1.6-.83l-2.08-2.44c-.66,.45-1.22,.86-1.22,1.71,0,.95,.81,1.56,1.7,1.56m-.04-4.49c.52-.25,1.3-.78,1.3-1.51,0-.79-.43-1.07-1.03-1.07s-1.04,.37-1.04,1.12c0,.58,.4,1.05,.77,1.46"/><polygon class="cls-2" points="267.25 63.92 272.1 63.92 272.1 65.01 268.49 65.01 268.49 67.54 271.77 67.54 271.77 68.63 268.49 68.63 268.49 71.48 272.1 71.48 272.1 72.57 267.25 72.57 267.25 63.92"/><path class="cls-2" d="M273.84,66.25h1.13v1h.02c.35-.72,1.19-1.15,2.07-1.15,1.64,0,2.37,1.02,2.37,2.72v3.76h-1.17v-3.27c0-1.47-.32-2.19-1.34-2.25-1.33,0-1.92,1.06-1.92,2.6v2.93h-1.17v-6.32Z"/><path class="cls-2" d="M286.63,72.3c0,1.92-.99,3.02-3.26,3.02-.67,0-1.25-.09-2.27-.43l.12-1.08c.89,.41,1.43,.57,2.28,.57,1.23,0,1.96-.83,1.96-2.17v-.62h-.02c-.5,.66-1.32,.98-2.12,.98-1.81,0-2.7-1.48-2.7-3.11s.92-3.36,2.83-3.36c1.12,0,1.74,.41,2.08,1.09h.02v-.94h1.08v6.05Zm-1.17-2.81c0-1.32-.61-2.44-1.85-2.44s-1.76,1.28-1.76,2.36c0,1.19,.67,2.23,1.76,2.23s1.85-.97,1.85-2.14"/><path class="cls-2" d="M289.72,64.84h-1.31v-1.31h1.31v1.31Zm-1.24,1.41h1.16v6.32h-1.16v-6.32Z"/><path class="cls-2" d="M291.48,66.25h1.13v1h.02c.35-.72,1.19-1.15,2.07-1.15,1.64,0,2.37,1.02,2.37,2.72v3.76h-1.17v-3.27c0-1.47-.32-2.19-1.34-2.25-1.33,0-1.92,1.06-1.92,2.6v2.93h-1.16v-6.32Z"/><path class="cls-2" d="M303.95,72.31c-.44,.16-.96,.41-2,.41-2.24,0-3.27-1.36-3.27-3.42,0-1.87,1.18-3.2,2.96-3.2,2.11,0,2.79,1.54,2.79,3.57h-4.51c0,1.25,.98,2.11,2.08,2.11,.77,0,1.66-.4,1.95-.63v1.17Zm-.76-3.51c0-.97-.57-1.76-1.57-1.76-1.14,0-1.61,.94-1.7,1.76h3.27Z"/><path class="cls-2" d="M310.77,72.31c-.44,.16-.96,.41-2,.41-2.24,0-3.27-1.36-3.27-3.42,0-1.87,1.18-3.2,2.96-3.2,2.11,0,2.79,1.54,2.79,3.57h-4.51c0,1.25,.98,2.11,2.08,2.11,.77,0,1.66-.4,1.95-.63v1.17Zm-.76-3.51c0-.97-.57-1.76-1.57-1.76-1.14,0-1.61,.94-1.7,1.76h3.27Z"/><path class="cls-2" d="M312.46,66.25h1.09v.98h.02c.31-.66,.98-1.13,1.65-1.13,.35,0,.52,.04,.77,.09v1.04c-.21-.09-.45-.11-.64-.11-1.04,0-1.72,.99-1.72,2.58v2.88h-1.17v-6.32Z"/><path class="cls-2" d="M318.42,64.84h-1.31v-1.31h1.31v1.31Zm-1.24,1.41h1.16v6.32h-1.16v-6.32Z"/><path class="cls-2" d="M320.24,66.25h1.13v1h.02c.35-.72,1.19-1.15,2.07-1.15,1.64,0,2.37,1.02,2.37,2.72v3.76h-1.17v-3.27c0-1.47-.32-2.19-1.34-2.25-1.33,0-1.92,1.06-1.92,2.6v2.93h-1.17v-6.32Z"/><path class="cls-2" d="M332.78,72.3c0,1.92-.99,3.02-3.26,3.02-.67,0-1.25-.09-2.27-.43l.12-1.08c.89,.41,1.43,.57,2.28,.57,1.23,0,1.96-.83,1.96-2.17v-.62h-.02c-.5,.66-1.32,.98-2.12,.98-1.81,0-2.7-1.48-2.7-3.11s.92-3.36,2.83-3.36c1.12,0,1.74,.41,2.08,1.09h.02v-.94h1.08v6.05Zm-1.17-2.81c0-1.32-.61-2.44-1.85-2.44s-1.76,1.28-1.76,2.36c0,1.19,.67,2.23,1.76,2.23s1.85-.97,1.85-2.14"/><polygon class="cls-2" points="189.37 31.25 190.89 31.25 190.89 35.93 195.44 31.25 197.47 31.25 192.46 36.28 197.86 41.89 195.64 41.89 190.89 36.68 190.89 41.89 189.37 41.89 189.37 31.25"/><path class="cls-2" d="M212.92,37.49c0,2.99-1.51,4.59-4.13,4.59s-4.13-1.6-4.13-4.59v-6.24h1.52v6.04c0,2.04,.64,3.45,2.61,3.45s2.61-1.4,2.61-3.45v-6.04h1.53v6.24Z"/><polygon class="cls-2" points="223.56 32.59 220.25 32.59 220.25 31.25 228.4 31.25 228.4 32.59 225.09 32.59 225.09 41.89 223.56 41.89 223.56 32.59"/><polygon class="cls-2" points="235.79 31.25 241.75 31.25 241.75 32.59 237.31 32.59 237.31 35.7 241.35 35.7 241.35 37.04 237.31 37.04 237.31 40.55 241.75 40.55 241.75 41.89 235.79 41.89 235.79 31.25"/><rect class="cls-2" x="249.2" y="36.13" width="3.92" height="1.16"/><polygon class="cls-2" points="262.97 32.59 259.66 32.59 259.66 31.25 267.81 31.25 267.81 32.59 264.5 32.59 264.5 41.89 262.97 41.89 262.97 32.59"/><path class="cls-2" d="M279.69,31.06c3.23,0,5.13,2.35,5.13,5.51s-1.88,5.51-5.13,5.51-5.12-2.27-5.12-5.51,1.89-5.51,5.12-5.51m0,9.67c2.46,0,3.51-2.04,3.51-4.16s-1.16-4.18-3.51-4.16c-2.35-.01-3.51,2-3.51,4.16s1.05,4.16,3.51,4.16"/><polygon class="cls-2" points="292.85 31.25 294.38 31.25 294.38 35.93 298.92 31.25 300.95 31.25 295.95 36.28 301.35 41.89 299.12 41.89 294.38 36.68 294.38 41.89 292.85 41.89 292.85 31.25"/><polygon class="cls-2" points="311.71 37.44 307.54 31.25 309.33 31.25 312.5 36.02 315.6 31.25 317.38 31.25 313.23 37.44 313.23 41.89 311.71 41.89 311.71 37.44"/><path class="cls-2" d="M328.66,31.06c3.23,0,5.13,2.35,5.13,5.51s-1.88,5.51-5.13,5.51-5.12-2.27-5.12-5.51,1.89-5.51,5.12-5.51m0,9.67c2.46,0,3.51-2.04,3.51-4.16s-1.16-4.18-3.51-4.16c-2.35-.01-3.51,2-3.51,4.16s1.05,4.16,3.51,4.16"/><polygon class="cls-2" points="37.14 31.06 39.91 31.06 39.91 39.56 48.15 31.06 51.83 31.06 42.76 40.19 52.55 50.37 48.51 50.37 39.91 40.91 39.91 50.37 37.14 50.37 37.14 31.06"/><path class="cls-2" d="M60.02,30.73c5.86,0,9.29,4.26,9.29,9.99s-3.4,9.99-9.29,9.99-9.29-4.12-9.29-9.99,3.43-9.99,9.29-9.99m0,17.54c4.45,0,6.36-3.71,6.36-7.55s-2.1-7.58-6.36-7.55c-4.26-.03-6.36,3.62-6.36,7.55s1.91,7.55,6.36,7.55"/><path class="cls-2" d="M86.38,34.49c-1.36-.89-2.82-1.33-5.31-1.33-4.46,0-7.41,3.24-7.41,7.55,0,4.54,3.26,7.55,7.27,7.55,1.91,0,2.41-.19,3.1-.33v-5.86h-4.07v-2.27h6.83v10.04c-1.05,.36-2.88,.86-5.89,.86-6.11,0-10.18-3.93-10.18-10.07s4.32-9.9,10.21-9.9c2.82,0,4.07,.41,5.67,.97l-.22,2.79Z"/><path class="cls-2" d="M95.73,31.06h2.9l8.16,19.31h-3.02l-1.96-4.87h-9.46l-1.96,4.87h-2.9l8.25-19.31Zm1.35,2.6l-3.84,9.57h7.69l-3.85-9.57Z"/><polygon class="cls-2" points="107.65 31.06 110.42 31.06 110.42 39.56 118.66 31.06 122.34 31.06 113.27 40.19 123.06 50.37 119.02 50.37 110.42 40.91 110.42 50.37 107.65 50.37 107.65 31.06"/><path class="cls-2" d="M138.64,42.38c0,5.42-2.74,8.33-7.5,8.33s-7.5-2.91-7.5-8.33v-11.31h2.77v10.96c0,3.71,1.16,6.25,4.73,6.25s4.73-2.54,4.73-6.25v-10.96h2.77v11.31Z"/><rect class="cls-2" x="141.37" y="31.06" width="2.77" height="19.31"/><polygon class="cls-2" points="146.96 31.06 150.72 31.06 159.24 46.61 159.3 46.61 159.3 31.06 162.06 31.06 162.06 50.37 158.52 50.37 149.78 34.49 149.72 34.49 149.72 50.37 146.96 50.37 146.96 31.06"/><path class="cls-2" d="M51.25,68.57c0,5.7-4.18,7.08-7,7.08s-7-1.38-7-7.08v-12.56h1.91v12.56c0,3.16,1.74,5.42,5.09,5.42s5.09-2.27,5.09-5.42v-12.56h1.91v12.56Z"/><polygon class="cls-2" points="53.87 56.02 56.28 56.02 66.1 73 66.15 73 66.15 56.02 68.06 56.02 68.06 75.33 65.49 75.33 55.83 58.67 55.78 58.67 55.78 75.33 53.87 75.33 53.87 56.02"/><rect class="cls-2" x="70.53" y="56.02" width="1.91" height="19.31"/><polygon class="cls-2" points="83.11 75.33 81.06 75.33 73.87 56.02 75.89 56.02 82.12 73.41 88.56 56.02 90.44 56.02 83.11 75.33"/><polygon class="cls-2" points="91.6 56.02 101.06 56.02 101.06 57.67 93.51 57.67 93.51 64.56 100.67 64.56 100.67 66.22 93.51 66.22 93.51 73.66 101.39 73.66 101.39 75.33 91.6 75.33 91.6 56.02"/><path class="cls-2" d="M102.92,56.02h4.98c3.43,0,5.67,1.46,5.67,5.01,0,2.49-1.91,4.15-4.29,4.45v.06c1.55,.19,1.88,1.03,2.49,2.32l3.29,7.47h-2.1l-2.79-6.53c-1.11-2.49-1.94-2.57-3.76-2.57h-1.58v9.1h-1.91v-19.31Zm1.91,8.55h2.02c2.24,0,4.81-.85,4.81-3.54,0-3.16-2.24-3.35-4.87-3.35h-1.96v6.89Z"/><path class="cls-2" d="M116.14,72.84c.89,.6,2.66,1.15,4.46,1.15,2.38,0,4.34-1.22,4.34-3.96,0-3.79-8.85-4.26-8.85-9.32,0-3.1,2.71-5.04,6.11-5.04,.94,0,2.46,.14,3.79,.64v1.77c-.87-.47-2.52-.74-3.82-.74-1.99,0-4.18,.83-4.18,3.32,0,3.87,8.85,3.9,8.85,9.55,0,3.9-3.35,5.45-6.34,5.45-1.88,0-3.35-.39-4.37-.83v-1.98Z"/><rect class="cls-2" x="129.07" y="56.02" width="1.91" height="19.31"/><polygon class="cls-2" points="138.22 57.67 132.52 57.67 132.52 56.02 145.83 56.02 145.83 57.67 140.13 57.67 140.13 75.32 138.22 75.32 138.22 57.67"/><polygon class="cls-2" points="153.85 67.14 146.69 56.02 148.9 56.02 154.79 65.45 160.85 56.02 162.93 56.02 155.76 67.14 155.76 75.33 153.85 75.33 153.85 67.14"/><rect class="cls-3" y=".07" width="20.07" height="75.26"/><rect class="cls-1" x="-3.26" y="39.82" width="28.44" height="2.53" transform="translate(-25.83 19.77) rotate(-44.98)"/><rect class="cls-1" x=".39" y="43.47" width="28.44" height="2.53" transform="translate(-27.35 23.43) rotate(-45)"/><rect class="cls-1" x="4.05" y="47.13" width="28.44" height="2.53" transform="translate(-28.87 27.09) rotate(-45)"/><rect class="cls-1" x="9.98" y="56.29" width="12.88" height="2.53" transform="translate(-35.89 28.48) rotate(-45.02)"/><rect class="cls-1" x="13.64" y="59.94" width="12.87" height="2.53" transform="translate(-37.41 32.14) rotate(-45.02)"/><rect class="cls-1" x="17.29" y="63.59" width="12.88" height="2.53" transform="translate(-38.92 35.8) rotate(-45.02)"/><line class="cls-4" x1="175.88" y1="27.7" x2="175.88" y2="79.18"/></svg>