<svg xmlns="http://www.w3.org/2000/svg" width="185.23" height="68" viewBox="0 0 185.23 68"><g transform="translate(-0.001 0)"><g transform="translate(0.001 0)"><path d="M49.536,24.441H37.787v3.186H49.561l0,4.495c0,.924-.3,1.5-1.343,1.5l-3.3.038,0,3.334h4.732A3.77,3.77,0,0,0,53.45,33V27.627h11.2V24.441H53.45V22.216l5.5-3.378V14.89H43.99l0,3.135H54.307L49.526,20.98Z" transform="translate(24.882 9.805)"/><path d="M64.525,13.084v8.341H61.143V16.079H41.571v5.344H37.927l0-8.339,5.113,0V9.926h3.372v3.145l3.111,0V9.926h3.32v3.141H55.99l.96-3.443,3.062,1.043-.7,2.418Z" transform="translate(24.974 6.337)"/><path d="M107.138,24.442H95.391v3.186h11.774l0,4.495c0,.924-.3,1.5-1.343,1.5l-3.3.038,0,3.334h4.73A3.768,3.768,0,0,0,111.052,33V27.628h11.2V24.442h-11.2V22.215l5.5-3.377V14.891H101.592v3.135h10.316l-4.78,2.955Z" transform="translate(62.814 9.806)"/><path d="M122.128,13.086v8.341h-3.382V16.081H99.173v5.344H95.534V13.086l5.112,0V9.928h3.372v3.145l3.113,0V9.928h3.317v3.141h3.146l.959-3.445,3.06,1.045-.7,2.418Z" transform="translate(62.908 6.338)"/><path d="M74.933,9.813v3.1h7.359v8.438H79.141V16.012h-12.5v5.342H63.457v-8.44l7.4,0v-3.1Z" transform="translate(41.785 6.462)"/><rect width="7.561" height="3.186" transform="translate(110.861 24.672)"/><path d="M45.583,11.749V15.19H35.449V35.512H46.472v3.443h-26.3V35.512H31.21V15.19h-10l0-3.441Z" transform="translate(13.285 7.737)"/><path d="M63.386,35.7c3.037-3.4,2.9-9.241,1.246-12.364a83.406,83.406,0,0,0,1.43-11.623L56.636,11.7l0,27.392h3.1l0-24.393,3.236,0a48.963,48.963,0,0,1-1.368,8.8,10.143,10.143,0,0,1-.58,10.623Z" transform="translate(37.292 7.705)"/><path d="M93.157,21.384A34.725,34.725,0,0,0,104.3,38.062l-2.068,2.662a38.271,38.271,0,0,1-11.719-16.3,38.285,38.285,0,0,1-11.727,16.3L76.716,38.06A34.675,34.675,0,0,0,87.861,21.384H77.252v-3.2H88.579V9.824h4.03v8.357h11.338v3.2Z" transform="translate(50.516 6.469)"/><path d="M79.169,31.976c-1.051,0-1.488-.174-1.488-1.387l0-9.669h5.183V17.832H63.856V20.92h4.619c-.315,5.135-2.838,9.87-5.758,12.114l2.032,2.486a19.665,19.665,0,0,0,7.231-14.6h2.388l0,10.558a3.233,3.233,0,0,0,3.514,3.556h5V32.01Z" transform="translate(41.298 11.742)"/><path d="M20.176,34.05H21.8v4.985l4.84-4.985H28.8l-5.324,5.355,5.745,5.977H26.845L21.8,39.828v5.554H20.176Z" transform="translate(13.285 22.422)"/><path d="M30.438,33.931c3.443,0,5.456,2.5,5.456,5.864,0,3.44-2,5.859-5.456,5.859s-5.455-2.42-5.455-5.859c0-3.362,2.012-5.864,5.455-5.864m0,10.294c2.615,0,3.735-2.174,3.735-4.43,0-2.307-1.234-4.448-3.735-4.433-2.5-.015-3.733,2.126-3.733,4.433,0,2.256,1.119,4.43,3.733,4.43" transform="translate(16.45 22.343)"/><path d="M41.247,36.142a5.224,5.224,0,0,0-3.118-.779,4.217,4.217,0,0,0-4.35,4.433,4.225,4.225,0,0,0,4.269,4.431,6.521,6.521,0,0,0,1.819-.2V40.588H37.479v-1.33h4.01v5.893a10.256,10.256,0,0,1-3.455.5,5.582,5.582,0,0,1-5.976-5.909,5.649,5.649,0,0,1,5.989-5.815,8.447,8.447,0,0,1,3.329.572Z" transform="translate(21.11 22.343)"/><path d="M42.827,34.05h1.7l4.79,11.333H47.551L46.4,42.523H40.847L39.7,45.383h-1.7Zm.8,1.527-2.257,5.616h4.513Z" transform="translate(25.016 22.422)"/><path d="M45.127,34.05H46.75v4.985l4.838-4.985h2.158L48.42,39.406l5.747,5.977H51.8L46.75,39.829v5.554H45.127Z" transform="translate(29.715 22.422)"/><path d="M59.583,40.693c0,3.179-1.607,4.884-4.4,4.884s-4.4-1.7-4.4-4.884V34.051h1.624v6.428c0,2.178.68,3.669,2.776,3.669s2.775-1.491,2.775-3.667v-6.43h1.624Z" transform="translate(33.441 22.422)"/><rect width="1.624" height="11.333" transform="translate(94.631 56.473)"/><path d="M59.035,34.051h2.209l5,9.123h.033V34.051H67.9V45.384H65.82l-5.13-9.319h-.033v9.319H59.035Z" transform="translate(38.873 22.422)"/><path d="M75.433,41.414a4.108,4.108,0,1,1-8.216,0l0-7.372h1.119v7.372a2.994,2.994,0,1,0,5.976,0V34.042h1.119Z" transform="translate(44.261 22.417)"/><path d="M73.1,34.042h1.411l5.763,9.971h.035V34.042h1.118V45.378H79.916L74.249,35.6h-.033v9.774H73.1Z" transform="translate(48.134 22.416)"/><rect width="1.123" height="11.336" transform="translate(131.005 56.457)"/><path d="M85.6,45.378h-1.2L80.174,34.042l1.187,0,3.652,10.213,3.781-10.213h1.1Z" transform="translate(52.793 22.416)"/><path d="M86.448,34.042H92v.975h-4.43v4.045h4.2v.974h-4.2V44.4h4.626v.977l-5.747,0Z" transform="translate(56.925 22.417)"/><path d="M90.455,34.043h2.924c2.012,0,3.329.864,3.329,2.941A2.67,2.67,0,0,1,94.19,39.6v.035c.909.113,1.1.6,1.461,1.363l1.934,4.385H96.348l-1.639-3.833c-.65-1.461-1.136-1.509-2.206-1.509h-.925v5.342H90.455Zm1.123,5.02h1.184c1.314,0,2.823-.509,2.823-2.08,0-1.854-1.315-1.965-2.856-1.965H91.578Z" transform="translate(59.563 22.417)"/><path d="M95.146,44a5.1,5.1,0,0,0,2.614.678,2.264,2.264,0,0,0,2.551-2.325c0-2.224-5.2-2.5-5.2-5.471,0-1.816,1.59-2.954,3.587-2.954a6.825,6.825,0,0,1,2.226.373l-.007,1.04a5.392,5.392,0,0,0-2.236-.436c-1.168,0-2.451.483-2.451,1.945,0,2.274,5.2,2.292,5.2,5.6,0,2.287-1.965,3.2-3.718,3.2a6.508,6.508,0,0,1-2.564-.488Z" transform="translate(62.631 22.34)"/><rect width="1.121" height="11.336" transform="translate(165.361 56.458)"/><path d="M104.273,35.018h-3.345v-.975h7.808v.975h-3.344V45.378h-1.119Z" transform="translate(66.46 22.417)"/><path d="M110.144,40.57l-4.2-6.528h1.3l3.458,5.536,3.554-5.536h1.217l-4.2,6.528v4.808h-1.121Z" transform="translate(69.761 22.417)"/><rect width="18.078" height="67.804" transform="translate(0 0)" fill="#3e49ab"/><rect width="25.621" height="2.277" transform="translate(0.003 45.199) rotate(-44.971)" fill="#ffc121"/><rect width="25.622" height="2.277" transform="translate(3.3 48.497) rotate(-45)" fill="#ffc121"/><rect width="25.622" height="2.278" transform="translate(6.592 51.79) rotate(-45)" fill="#ffc121"/><rect width="11.601" height="2.277" transform="translate(9.887 55.084) rotate(-45)" fill="#ffc121"/><rect width="11.601" height="2.276" transform="matrix(0.706, -0.708, 0.708, 0.706, 13.184, 58.382)" fill="#ffc121"/><rect width="11.601" height="2.278" transform="translate(16.475 61.673) rotate(-45.029)" fill="#ffc121"/></g></g></svg>